<svg xmlns="http://www.w3.org/2000/svg" xmlns:xlink="http://www.w3.org/1999/xlink" width="32.491" height="32.491" viewBox="0 0 32.491 32.491"><defs><style>.a{fill:url(#a);}.b{fill:#fff;}.c{filter:url(#b);}</style><linearGradient id="a" x1="0.993" y1="0.958" x2="0.008" y2="0.033" gradientUnits="objectBoundingBox"><stop offset="0" stop-color="#6e9dbf"/><stop offset="1" stop-color="#cbe0fc"/></linearGradient><filter id="b" x="0" y="0" width="32.491" height="32.491" filterUnits="userSpaceOnUse"><feOffset dy="3" input="SourceAlpha"/><feGaussianBlur stdDeviation="3" result="c"/><feFlood flood-opacity="0.161"/><feComposite operator="in" in2="c"/><feComposite in="SourceGraphic"/></filter></defs><g transform="translate(-507.505 -332.505)"><g class="c" transform="matrix(1, 0, 0, 1, 507.5, 332.5)"><circle class="a" cx="5.75" cy="5.75" r="5.75" transform="matrix(0.95, 0.31, -0.31, 0.95, 12.55, 6)"/></g><path class="b" d="M.316-.691a2.407,2.407,0,0,1,.07-.463q.041-.182.123-.48l.721-2.7q.012-.047.021-.094a.478.478,0,0,0,.009-.088q0-.24-.152-.3a2.021,2.021,0,0,0-.557-.076V-5.2q.34-.023.987-.1t.917-.126l.516-.1L2.039-2.109q-.117.439-.158.609a3.186,3.186,0,0,0-.105.563q0,.129.059.167a.232.232,0,0,0,.129.038q.182,0,.451-.311a4.683,4.683,0,0,0,.475-.65l.264.17a8.172,8.172,0,0,1-.9,1.16,1.552,1.552,0,0,1-1.09.492.936.936,0,0,1-.589-.2A.733.733,0,0,1,.316-.691ZM2.637-8.2a.774.774,0,0,1,.568.234.774.774,0,0,1,.234.568.784.784,0,0,1-.234.571.769.769,0,0,1-.568.237.779.779,0,0,1-.571-.237A.779.779,0,0,1,1.828-7.4a.769.769,0,0,1,.237-.568A.784.784,0,0,1,2.637-8.2Z" transform="translate(522 350)"/></g></svg>